<svg width="273" height="40" viewBox="0 0 273 40" fill="none" xmlns="http://www.w3.org/2000/svg">
<path d="M243.558 19.6512C243.558 19.8072 243.684 19.9336 243.84 19.9336H244.115C244.697 19.9336 245.144 19.8131 245.455 19.5722C245.766 19.3312 245.922 18.9849 245.922 18.5331C245.922 18.0814 245.766 17.735 245.455 17.4941C245.144 17.2531 244.697 17.1326 244.115 17.1326H243.84C243.684 17.1326 243.558 17.2591 243.558 17.415V19.6512ZM249.7 25.7589C249.842 25.9447 249.71 26.2131 249.476 26.2131H246.527C246.432 26.2131 246.342 26.1644 246.29 26.0838L244.077 22.6519C243.925 22.4153 243.558 22.5233 243.558 22.8049V25.9308C243.558 26.0867 243.431 26.2131 243.275 26.2131H240.888C240.732 26.2131 240.606 26.0867 240.606 25.9308V15.1411C240.606 14.9852 240.732 14.8588 240.888 14.8588H245.199C245.831 14.8588 246.384 14.9541 246.855 15.1449C247.327 15.3256 247.714 15.5766 248.015 15.8978C248.326 16.2191 248.557 16.5905 248.708 17.0122C248.868 17.4338 248.949 17.8856 248.949 18.3675C248.949 19.2308 248.738 19.9336 248.316 20.4757C247.979 20.9118 247.507 21.2333 246.899 21.4401C246.705 21.5062 246.62 21.7442 246.745 21.9068L249.7 25.7589Z" fill="#2C2C37"/>
<path d="M238.478 17.0762C238.478 17.2321 238.352 17.3585 238.196 17.3585H235.252C235.096 17.3585 234.97 17.4849 234.97 17.6409V18.9736C234.97 19.1295 235.096 19.2559 235.252 19.2559H238C238.156 19.2559 238.283 19.3824 238.283 19.5383V21.4734C238.283 21.6293 238.156 21.7557 238 21.7557H235.252C235.096 21.7557 234.97 21.8821 234.97 22.0381V23.431C234.97 23.5869 235.096 23.7134 235.252 23.7134H238.196C238.352 23.7134 238.478 23.8398 238.478 23.9957V25.9308C238.478 26.0867 238.352 26.2131 238.196 26.2131H232.3C232.144 26.2131 232.018 26.0867 232.018 25.9308V15.1411C232.018 14.9852 232.144 14.8588 232.3 14.8588H238.196C238.352 14.8588 238.478 14.9852 238.478 15.1411V17.0762Z" fill="#2C2C37"/>
<path d="M228.563 17.3585C228.407 17.3585 228.28 17.4849 228.28 17.6409V25.9308C228.28 26.0867 228.154 26.2131 227.998 26.2131H225.611C225.455 26.2131 225.329 26.0867 225.329 25.9308V17.6409C225.329 17.4849 225.202 17.3585 225.046 17.3585H223.187C223.031 17.3585 222.904 17.2321 222.904 17.0762V15.1411C222.904 14.9852 223.031 14.8588 223.187 14.8588H230.422C230.578 14.8588 230.705 14.9852 230.705 15.1411V17.0762C230.705 17.2321 230.578 17.3585 230.422 17.3585H228.563Z" fill="#2C2C37"/>
<path d="M210.535 26.2131C210.379 26.2131 210.253 26.0867 210.253 25.9308V15.1411C210.253 14.9852 210.379 14.8588 210.535 14.8588H213.067C213.154 14.8588 213.236 14.8986 213.289 14.9667L218.151 21.1585C218.317 21.3694 218.656 21.2523 218.656 20.9841V15.1411C218.656 14.9852 218.782 14.8588 218.938 14.8588H221.31C221.466 14.8588 221.592 14.9852 221.592 15.1411V25.9308C221.592 26.0867 221.466 26.2131 221.31 26.2131H218.793C218.706 26.2131 218.625 26.1733 218.571 26.1051L213.709 19.9134C213.543 19.7024 213.205 19.8196 213.205 20.0878V25.9308C213.205 26.0867 213.078 26.2131 212.922 26.2131H210.535Z" fill="#2C2C37"/>
<path d="M208.125 17.0762C208.125 17.2321 207.999 17.3585 207.843 17.3585H204.899C204.743 17.3585 204.616 17.4849 204.616 17.6409V18.9736C204.616 19.1295 204.743 19.2559 204.899 19.2559H207.647C207.803 19.2559 207.929 19.3824 207.929 19.5383V21.4734C207.929 21.6293 207.803 21.7557 207.647 21.7557H204.899C204.743 21.7557 204.616 21.8821 204.616 22.0381V23.431C204.616 23.5869 204.743 23.7134 204.899 23.7134H207.843C207.999 23.7134 208.125 23.8398 208.125 23.9957V25.9308C208.125 26.0867 207.999 26.2131 207.843 26.2131H201.947C201.791 26.2131 201.665 26.0867 201.665 25.9308V15.1411C201.665 14.9852 201.791 14.8588 201.947 14.8588H207.843C207.999 14.8588 208.125 14.9852 208.125 15.1411V17.0762Z" fill="#2C2C37"/>
<path d="M199.798 17.8633C199.798 18.1285 199.447 18.2615 199.241 18.0946C198.672 17.6339 198.014 17.4035 197.268 17.4035C196.826 17.4035 196.414 17.4838 196.033 17.6445C195.662 17.8051 195.34 18.026 195.069 18.3071C194.798 18.5781 194.582 18.9044 194.422 19.2859C194.271 19.6674 194.196 20.079 194.196 20.5207C194.196 20.9725 194.271 21.3891 194.422 21.7706C194.582 22.1521 194.798 22.4834 195.069 22.7645C195.35 23.0456 195.677 23.2664 196.048 23.4271C196.42 23.5877 196.821 23.668 197.253 23.668C197.983 23.668 198.656 23.4274 199.273 22.9463C199.474 22.7887 199.798 22.9213 199.798 23.1773V25.7566C199.798 25.8766 199.722 25.9835 199.609 26.0231L199.497 26.0624C199.045 26.223 198.623 26.3384 198.232 26.4087C197.84 26.489 197.454 26.5292 197.072 26.5292C196.289 26.5292 195.536 26.3836 194.813 26.0925C194.1 25.7913 193.468 25.3747 192.916 24.8426C192.374 24.3005 191.937 23.663 191.606 22.9301C191.274 22.1872 191.109 21.3791 191.109 20.5057C191.109 19.6322 191.269 18.8341 191.591 18.1113C191.922 17.3784 192.359 16.751 192.901 16.2289C193.453 15.6969 194.09 15.2853 194.813 14.9941C195.536 14.6929 196.294 14.5424 197.087 14.5424C197.539 14.5424 197.981 14.5926 198.412 14.6929C198.8 14.7723 199.204 14.8944 199.623 15.059C199.729 15.1007 199.798 15.2039 199.798 15.3179V17.8633Z" fill="#2C2C37"/>
<path d="M183.914 17.4539C183.832 17.614 183.624 17.6573 183.476 17.5556C183.247 17.3992 183.019 17.2783 182.791 17.1927C182.47 17.0622 182.159 16.9969 181.858 16.9969C181.476 16.9969 181.165 17.0873 180.924 17.268C180.683 17.4487 180.563 17.6846 180.563 17.9758C180.563 18.1766 180.623 18.3422 180.743 18.4727C180.864 18.6032 181.019 18.7187 181.21 18.8191C181.411 18.9094 181.632 18.9897 181.873 19.06C182.124 19.1303 182.37 19.2056 182.611 19.2859C183.574 19.6071 184.277 20.0388 184.719 20.5809C185.171 21.113 185.396 21.8108 185.396 22.6741C185.396 23.2564 185.296 23.7835 185.095 24.2553C184.905 24.7271 184.618 25.1337 184.237 25.4751C183.865 25.8064 183.404 26.0624 182.851 26.2431C182.309 26.4338 181.692 26.5292 180.999 26.5292C179.644 26.5292 178.383 26.1492 177.216 25.3891C177.097 25.3112 177.059 25.1543 177.126 25.0281L178.105 23.1865C178.191 23.0251 178.405 22.9869 178.548 23.1007C178.896 23.3779 179.242 23.5921 179.584 23.7433C180.015 23.934 180.442 24.0294 180.864 24.0294C181.346 24.0294 181.702 23.919 181.933 23.6981C182.174 23.4773 182.294 23.2263 182.294 22.9452C182.294 22.7745 182.264 22.6289 182.204 22.5085C182.144 22.378 182.043 22.2625 181.903 22.1621C181.762 22.0517 181.577 21.9513 181.346 21.8609C181.125 21.7706 180.854 21.6702 180.532 21.5598C180.151 21.4393 179.774 21.3088 179.403 21.1682C179.042 21.0177 178.715 20.8219 178.424 20.5809C178.143 20.34 177.912 20.0388 177.731 19.6774C177.561 19.306 177.475 18.8391 177.475 18.2769C177.475 17.7148 177.566 17.2078 177.747 16.756C177.937 16.2942 178.198 15.9027 178.53 15.5814C178.871 15.2501 179.283 14.9941 179.764 14.8134C180.256 14.6327 180.803 14.5424 181.406 14.5424C181.968 14.5424 182.555 14.6227 183.168 14.7833C183.691 14.9121 184.197 15.0958 184.683 15.3347C184.821 15.4024 184.874 15.5705 184.804 15.7074L183.914 17.4539Z" fill="#2C2C37"/>
<path d="M174.178 17.4539C174.097 17.614 173.889 17.6573 173.74 17.5556C173.512 17.3992 173.284 17.2783 173.056 17.1927C172.735 17.0622 172.424 16.9969 172.122 16.9969C171.741 16.9969 171.43 17.0873 171.189 17.268C170.948 17.4487 170.827 17.6846 170.827 17.9758C170.827 18.1766 170.888 18.3422 171.008 18.4727C171.128 18.6032 171.284 18.7187 171.475 18.8191C171.676 18.9094 171.896 18.9897 172.137 19.06C172.388 19.1303 172.634 19.2056 172.875 19.2859C173.839 19.6071 174.542 20.0388 174.984 20.5809C175.435 21.113 175.661 21.8108 175.661 22.6741C175.661 23.2564 175.561 23.7835 175.36 24.2553C175.169 24.7271 174.883 25.1337 174.502 25.4751C174.13 25.8064 173.668 26.0624 173.116 26.2431C172.574 26.4338 171.957 26.5292 171.264 26.5292C169.909 26.5292 168.648 26.1492 167.481 25.3891C167.361 25.3112 167.324 25.1543 167.391 25.0281L168.37 23.1865C168.456 23.0251 168.67 22.9869 168.813 23.1007C169.161 23.3779 169.506 23.5921 169.848 23.7433C170.28 23.934 170.707 24.0294 171.128 24.0294C171.61 24.0294 171.967 23.919 172.198 23.6981C172.439 23.4773 172.559 23.2263 172.559 22.9452C172.559 22.7745 172.529 22.6289 172.469 22.5085C172.408 22.378 172.308 22.2625 172.168 22.1621C172.027 22.0517 171.841 21.9513 171.61 21.8609C171.39 21.7706 171.118 21.6702 170.797 21.5598C170.416 21.4393 170.039 21.3088 169.668 21.1682C169.306 21.0177 168.98 20.8219 168.689 20.5809C168.408 20.34 168.177 20.0388 167.996 19.6774C167.826 19.306 167.74 18.8391 167.74 18.2769C167.74 17.7148 167.831 17.2078 168.011 16.756C168.202 16.2942 168.463 15.9027 168.794 15.5814C169.136 15.2501 169.547 14.9941 170.029 14.8134C170.521 14.6327 171.068 14.5424 171.671 14.5424C172.233 14.5424 172.82 14.6227 173.433 14.7833C173.956 14.9121 174.461 15.0958 174.948 15.3347C175.086 15.4024 175.139 15.5705 175.069 15.7074L174.178 17.4539Z" fill="#2C2C37"/>
<path d="M165.658 17.0762C165.658 17.2321 165.531 17.3585 165.375 17.3585H162.431C162.275 17.3585 162.149 17.4849 162.149 17.6409V18.9736C162.149 19.1295 162.275 19.2559 162.431 19.2559H165.18C165.335 19.2559 165.462 19.3824 165.462 19.5383V21.4734C165.462 21.6293 165.335 21.7557 165.18 21.7557H162.431C162.275 21.7557 162.149 21.8821 162.149 22.0381V23.431C162.149 23.5869 162.275 23.7134 162.431 23.7134H165.375C165.531 23.7134 165.658 23.8398 165.658 23.9957V25.9308C165.658 26.0867 165.531 26.2131 165.375 26.2131H159.48C159.324 26.2131 159.197 26.0867 159.197 25.9308V15.1411C159.197 14.9852 159.324 14.8588 159.48 14.8588H165.375C165.531 14.8588 165.658 14.9852 165.658 15.1411V17.0762Z" fill="#2C2C37"/>
<path d="M157.33 17.8633C157.33 18.1285 156.979 18.2615 156.773 18.0946C156.204 17.6339 155.547 17.4035 154.8 17.4035C154.359 17.4035 153.947 17.4838 153.565 17.6445C153.194 17.8051 152.873 18.026 152.602 18.3071C152.331 18.5781 152.115 18.9044 151.954 19.2859C151.804 19.6674 151.728 20.079 151.728 20.5207C151.728 20.9725 151.804 21.3891 151.954 21.7706C152.115 22.1521 152.331 22.4834 152.602 22.7645C152.883 23.0456 153.209 23.2664 153.581 23.4271C153.952 23.5877 154.354 23.668 154.785 23.668C155.516 23.668 156.189 23.4274 156.805 22.9463C157.007 22.7887 157.33 22.9213 157.33 23.1773V25.7566C157.33 25.8766 157.254 25.9835 157.141 26.0231L157.029 26.0624C156.577 26.223 156.156 26.3384 155.764 26.4087C155.373 26.489 154.986 26.5292 154.605 26.5292C153.821 26.5292 153.069 26.3836 152.346 26.0925C151.633 25.7913 151 25.3747 150.448 24.8426C149.906 24.3005 149.469 23.663 149.138 22.9301C148.807 22.1872 148.641 21.3791 148.641 20.5057C148.641 19.6322 148.802 18.8341 149.123 18.1113C149.454 17.3784 149.891 16.751 150.433 16.2289C150.985 15.6969 151.623 15.2853 152.346 14.9941C153.069 14.6929 153.826 14.5424 154.62 14.5424C155.071 14.5424 155.513 14.5926 155.945 14.6929C156.333 14.7723 156.737 14.8944 157.156 15.059C157.262 15.1007 157.33 15.2039 157.33 15.3179V17.8633Z" fill="#2C2C37"/>
<path d="M147.286 17.8633C147.286 18.1285 146.935 18.2615 146.729 18.0946C146.16 17.6339 145.502 17.4035 144.756 17.4035C144.314 17.4035 143.903 17.4838 143.521 17.6445C143.15 17.8051 142.828 18.026 142.557 18.3071C142.286 18.5781 142.07 18.9044 141.91 19.2859C141.759 19.6674 141.684 20.079 141.684 20.5207C141.684 20.9725 141.759 21.3891 141.91 21.7706C142.07 22.1521 142.286 22.4834 142.557 22.7645C142.838 23.0456 143.165 23.2664 143.536 23.4271C143.908 23.5877 144.309 23.668 144.741 23.668C145.471 23.668 146.145 23.4274 146.761 22.9463C146.963 22.7887 147.286 22.9213 147.286 23.1773V25.7566C147.286 25.8766 147.21 25.9835 147.097 26.0231L146.985 26.0624C146.533 26.223 146.111 26.3384 145.72 26.4087C145.328 26.489 144.942 26.5292 144.56 26.5292C143.777 26.5292 143.024 26.3836 142.301 26.0925C141.589 25.7913 140.956 25.3747 140.404 24.8426C139.862 24.3005 139.425 23.663 139.094 22.9301C138.763 22.1872 138.597 21.3791 138.597 20.5057C138.597 19.6322 138.758 18.8341 139.079 18.1113C139.41 17.3784 139.847 16.751 140.389 16.2289C140.941 15.6969 141.579 15.2853 142.301 14.9941C143.024 14.6929 143.782 14.5424 144.575 14.5424C145.027 14.5424 145.469 14.5926 145.9 14.6929C146.289 14.7723 146.692 14.8944 147.111 15.059C147.217 15.1007 147.286 15.2039 147.286 15.3179V17.8633Z" fill="#2C2C37"/>
<path d="M133.238 21.9966C133.433 21.9966 133.569 21.8045 133.504 21.6209L132.577 18.9769C132.489 18.725 132.133 18.725 132.045 18.9769L131.118 21.6209C131.053 21.8045 131.189 21.9966 131.384 21.9966H133.238ZM134.485 24.431C134.446 24.317 134.338 24.2404 134.218 24.2404H130.404C130.284 24.2404 130.176 24.317 130.137 24.431L129.591 26.0225C129.551 26.1365 129.444 26.2131 129.324 26.2131H126.787C126.59 26.2131 126.453 26.0151 126.524 25.8303L130.63 15.0407C130.672 14.9312 130.777 14.8588 130.894 14.8588H133.728C133.845 14.8588 133.95 14.9312 133.992 15.0407L138.098 25.8303C138.169 26.0151 138.032 26.2131 137.835 26.2131H135.298C135.178 26.2131 135.071 26.1365 135.031 26.0225L134.485 24.431Z" fill="#2C2C37"/>
<path d="M119.755 17.4539C119.673 17.614 119.465 17.6573 119.317 17.5556C119.089 17.3992 118.861 17.2783 118.633 17.1927C118.311 17.0622 118 16.9969 117.699 16.9969C117.318 16.9969 117.006 17.0873 116.765 17.268C116.524 17.4487 116.404 17.6846 116.404 17.9758C116.404 18.1766 116.464 18.3422 116.585 18.4727C116.705 18.6032 116.861 18.7187 117.052 18.8191C117.252 18.9094 117.473 18.9897 117.714 19.06C117.965 19.1303 118.211 19.2056 118.452 19.2859C119.416 19.6071 120.118 20.0388 120.56 20.5809C121.012 21.113 121.238 21.8108 121.238 22.6741C121.238 23.2564 121.137 23.7835 120.937 24.2553C120.746 24.7271 120.46 25.1337 120.078 25.4751C119.707 25.8064 119.245 26.0624 118.693 26.2431C118.151 26.4338 117.533 26.5292 116.841 26.5292C115.486 26.5292 114.225 26.1492 113.058 25.3891C112.938 25.3112 112.901 25.1543 112.968 25.0281L113.947 23.1865C114.033 23.0251 114.246 22.9869 114.389 23.1007C114.738 23.3779 115.083 23.5921 115.425 23.7433C115.857 23.934 116.284 24.0294 116.705 24.0294C117.187 24.0294 117.543 23.919 117.774 23.6981C118.015 23.4773 118.136 23.2263 118.136 22.9452C118.136 22.7745 118.106 22.6289 118.045 22.5085C117.985 22.378 117.885 22.2625 117.744 22.1621C117.604 22.0517 117.418 21.9513 117.187 21.8609C116.966 21.7706 116.695 21.6702 116.374 21.5598C115.992 21.4393 115.616 21.3088 115.244 21.1682C114.883 21.0177 114.557 20.8219 114.266 20.5809C113.985 20.34 113.754 20.0388 113.573 19.6774C113.402 19.306 113.317 18.8391 113.317 18.2769C113.317 17.7148 113.407 17.2078 113.588 16.756C113.779 16.2942 114.04 15.9027 114.371 15.5814C114.712 15.2501 115.124 14.9941 115.606 14.8134C116.098 14.6327 116.645 14.5424 117.247 14.5424C117.809 14.5424 118.397 14.6227 119.009 14.7833C119.533 14.9121 120.038 15.0958 120.525 15.3347C120.663 15.4024 120.715 15.5705 120.645 15.7074L119.755 17.4539Z" fill="#2C2C37"/>
<path d="M109.892 17.3585C109.736 17.3585 109.61 17.4849 109.61 17.6409V25.9308C109.61 26.0867 109.483 26.2131 109.327 26.2131H106.94C106.785 26.2131 106.658 26.0867 106.658 25.9308V17.6409C106.658 17.4849 106.532 17.3585 106.376 17.3585H104.516C104.36 17.3585 104.234 17.2321 104.234 17.0762V15.1411C104.234 14.9852 104.36 14.8588 104.516 14.8588H111.752C111.908 14.8588 112.034 14.9852 112.034 15.1411V17.0762C112.034 17.2321 111.908 17.3585 111.752 17.3585H109.892Z" fill="#2C2C37"/>
<path d="M102.649 14.8588C102.805 14.8588 102.931 14.9852 102.931 15.1411V25.9308C102.931 26.0867 102.805 26.2131 102.649 26.2131H100.262C100.106 26.2131 99.9796 26.0867 99.9796 25.9308V15.1411C99.9796 14.9852 100.106 14.8588 100.262 14.8588H102.649Z" fill="#2C2C37"/>
<path d="M98.2204 17.0762C98.2204 17.2321 98.094 17.3585 97.938 17.3585H94.9488C94.7929 17.3585 94.6665 17.4849 94.6665 17.6409V18.9736C94.6665 19.1295 94.7929 19.2559 94.9488 19.2559H97.6218C97.7777 19.2559 97.9041 19.3824 97.9041 19.5383V21.4734C97.9041 21.6293 97.7777 21.7557 97.6218 21.7557H94.9488C94.7929 21.7557 94.6665 21.8821 94.6665 22.0381V25.9308C94.6665 26.0867 94.5401 26.2131 94.3841 26.2131H91.9973C91.8414 26.2131 91.715 26.0867 91.715 25.9308V15.1411C91.715 14.9852 91.8414 14.8588 91.9973 14.8588H97.938C98.094 14.8588 98.2204 14.9852 98.2204 15.1411V17.0762Z" fill="#2C2C37"/>
<path d="M89.5869 17.0762C89.5869 17.2321 89.4605 17.3585 89.3046 17.3585H86.3606C86.2047 17.3585 86.0782 17.4849 86.0782 17.6409V18.9736C86.0782 19.1295 86.2047 19.2559 86.3606 19.2559H89.1088C89.2648 19.2559 89.3912 19.3824 89.3912 19.5383V21.4734C89.3912 21.6293 89.2648 21.7557 89.1088 21.7557H86.3606C86.2047 21.7557 86.0782 21.8821 86.0782 22.0381V23.431C86.0782 23.5869 86.2047 23.7134 86.3606 23.7134H89.3046C89.4605 23.7134 89.5869 23.8398 89.5869 23.9957V25.9308C89.5869 26.0867 89.4605 26.2131 89.3046 26.2131H83.4091C83.2531 26.2131 83.1267 26.0867 83.1267 25.9308V15.1411C83.1267 14.9852 83.2531 14.8588 83.4091 14.8588H89.3046C89.4605 14.8588 89.5869 14.9852 89.5869 15.1411V17.0762Z" fill="#2C2C37"/>
<path d="M69.6884 26.2131C69.5324 26.2131 69.406 26.0867 69.406 25.9308V15.1411C69.406 14.9852 69.5324 14.8588 69.6884 14.8588H72.2203C72.3069 14.8588 72.3888 14.8986 72.4423 14.9667L77.3044 21.1585C77.47 21.3694 77.8088 21.2523 77.8088 20.9841V15.1411C77.8088 14.9852 77.9352 14.8588 78.0912 14.8588H80.4629C80.6189 14.8588 80.7453 14.9852 80.7453 15.1411V25.9308C80.7453 26.0867 80.6189 26.2131 80.4629 26.2131H77.9461C77.8594 26.2131 77.7776 26.1733 77.724 26.1051L72.862 19.9134C72.6963 19.7024 72.3575 19.8196 72.3575 20.0878V25.9308C72.3575 26.0867 72.2311 26.2131 72.0752 26.2131H69.6884Z" fill="#2C2C37"/>
<path d="M67.2781 17.0762C67.2781 17.2321 67.1517 17.3585 66.9958 17.3585H64.0518C63.8958 17.3585 63.7694 17.4849 63.7694 17.6409V18.9736C63.7694 19.1295 63.8958 19.2559 64.0518 19.2559H66.8C66.9559 19.2559 67.0823 19.3824 67.0823 19.5383V21.4734C67.0823 21.6293 66.9559 21.7557 66.8 21.7557H64.0518C63.8958 21.7557 63.7694 21.8821 63.7694 22.0381V23.431C63.7694 23.5869 63.8958 23.7134 64.0518 23.7134H66.9958C67.1517 23.7134 67.2781 23.8398 67.2781 23.9957V25.9308C67.2781 26.0867 67.1517 26.2131 66.9958 26.2131H61.1002C60.9443 26.2131 60.8179 26.0867 60.8179 25.9308V15.1411C60.8179 14.9852 60.9443 14.8588 61.1002 14.8588H66.9958C67.1517 14.8588 67.2781 14.9852 67.2781 15.1411V17.0762Z" fill="#2C2C37"/>
<path d="M53.343 23.6418C53.343 23.7978 53.4694 23.9242 53.6254 23.9242H53.9905C54.7334 23.9242 55.2655 23.8288 55.5868 23.6381C55.908 23.4473 56.0687 23.1411 56.0687 22.7195C56.0687 22.2978 55.908 21.9916 55.5868 21.8009C55.2655 21.6101 54.7334 21.5148 53.9905 21.5148H53.6254C53.4694 21.5148 53.343 21.6412 53.343 21.7971V23.6418ZM53.343 19.0338C53.343 19.1898 53.4694 19.3162 53.6254 19.3162H53.8851C54.8087 19.3162 55.2705 18.9497 55.2705 18.2169C55.2705 17.484 54.8087 17.1176 53.8851 17.1176H53.6254C53.4694 17.1176 53.343 17.244 53.343 17.3999V19.0338ZM50.3915 15.1411C50.3915 14.9852 50.5179 14.8588 50.6738 14.8588H54.7887C55.8327 14.8588 56.6258 15.1097 57.168 15.6117C57.7101 16.1137 57.9811 16.8365 57.9811 17.7802C57.9811 18.3524 57.8757 18.8293 57.6649 19.2108C57.5681 19.3898 57.4457 19.556 57.2976 19.7094C57.1188 19.8946 57.1888 20.2616 57.4282 20.3562C57.5623 20.4092 57.6864 20.4691 57.8004 20.5359C58.1016 20.6966 58.3425 20.8974 58.5232 21.1383C58.714 21.3792 58.8495 21.6503 58.9298 21.9515C59.0101 22.2526 59.0503 22.5739 59.0503 22.9152C59.0503 23.4473 58.9549 23.9192 58.7642 24.3308C58.5835 24.7424 58.3225 25.0887 57.9811 25.3698C57.6498 25.6509 57.2432 25.8617 56.7614 26.0023C56.2795 26.1428 55.7374 26.2131 55.135 26.2131H50.6738C50.5179 26.2131 50.3915 26.0867 50.3915 25.9308V15.1411Z" fill="#2C2C37"/>
<path d="M40.1587 12.6791C41.581 12.0951 42.9875 10.6801 43.963 9.4984C44.185 9.22958 44.7024 9.43351 44.6626 9.77982C44.4693 11.4588 44.0311 13.7047 41.9515 15.1892C40.6702 16.1038 38.9456 16.6762 38.0585 16.8831C37.8832 16.924 37.7625 17.0905 37.7831 17.2694C37.9255 18.506 38.0528 21.2771 37.6486 24.8708C37.1299 29.483 34.7465 32.7126 33.0851 34.2468C32.8479 34.4658 32.4994 34.2185 32.585 33.9073C32.9085 32.7309 33.2623 31.0183 33.3457 29.5323C33.4363 27.9178 33.4433 26.9984 33.418 26.1452C33.4082 25.8158 32.9558 25.7006 32.7675 25.9711C32.1784 26.8173 31.2497 27.9322 29.7599 29.1737C28.4588 30.258 26.2472 30.9482 24.7873 31.2161C24.5018 31.2684 24.3292 30.9524 24.5206 30.7342C25.9473 29.1085 27.9057 27.2933 29.156 24.0879C29.79 22.4624 30.1115 19.9887 30.1225 18.4351C30.1239 18.2352 29.9427 18.0869 29.7459 18.1219C28.7739 18.2943 27.7635 18.5385 26.1741 19.4921C25.0168 20.1865 24.1722 20.9613 23.5169 21.6608C23.2788 21.915 22.7943 21.6801 22.8649 21.3389C23.1573 19.9257 23.7237 18.0953 25.8156 16.2649C27.4669 14.82 29.7599 14.1135 32.6285 13.7549C35.4972 13.3963 38.0438 13.5476 40.1587 12.6791Z" fill="#2C2C37"/>
<circle cx="32.6284" cy="10.1688" r="2.86862" fill="#2C2C37"/>
<path d="M37.9739 3.3563C38.8615 2.76452 39.873 3.29885 40.4538 3.90327C40.6419 4.099 41.0468 4.10116 41.2395 3.91003C41.8377 3.31694 42.8811 2.80298 43.7111 3.3563C44.7868 4.07346 44.0697 5.86634 43.3525 6.94207C42.8371 7.71512 41.7045 8.73892 41.0463 9.28575C40.9277 9.3842 40.7572 9.3842 40.6387 9.28575C39.9804 8.73892 38.8478 7.71512 38.3324 6.94207C37.6153 5.86634 36.8981 4.07346 37.9739 3.3563Z" fill="#2C2C37"/>
</svg>
