<svg width="30" height="25" viewBox="0 0 30 25" fill="none" xmlns="http://www.w3.org/2000/svg">
<path d="M10.9728 16.3342C11.3984 15.6412 11.8024 14.9638 12.2252 14.2984C13.9418 11.5986 15.931 9.11337 18.1502 6.81155C20.1255 4.76245 22.2299 2.86247 24.6206 1.30167C25.4029 0.790968 26.2052 0.310372 27.1321 0.0975512C27.7436 -0.0428124 28.3534 -0.0421123 28.9509 0.166158C29.8403 0.475938 30.1854 1.17986 29.9037 2.08049C29.7416 2.59819 29.4143 3.00528 29.0282 3.36407C28.2781 4.06168 27.5161 4.74705 26.7558 5.43382C22.3996 9.3689 18.838 13.9344 16.0017 19.0652C15.114 20.6711 14.2995 22.3184 13.4797 23.9611C13.247 24.4277 12.9246 24.6724 12.417 24.7231C11.2119 24.8435 10.0081 24.8425 8.80328 24.72C8.35173 24.6741 8.04685 24.4624 7.82878 24.0465C7.05766 22.5753 6.30439 21.0919 5.4587 19.6637C4.13978 17.4372 2.50162 15.4574 0.576781 13.7202C0.430466 13.5882 0.286253 13.451 0.16129 13.2998C-0.0634313 13.0275 -0.0550305 12.7579 0.191043 12.5049C0.316705 12.376 0.46302 12.2588 0.619485 12.1702C1.74799 11.5304 2.88525 10.9059 4.01201 10.2625C4.74008 9.84669 5.41425 9.9398 6.07756 10.4057C7.15707 11.1639 8.04965 12.1118 8.86523 13.1374C9.61781 14.0839 10.2881 15.086 10.8643 16.1498C10.893 16.2026 10.9252 16.2537 10.9724 16.3342H10.9728Z" fill="#104E8B"/>
</svg>
